<svg width="32" height="37" fill="none" xmlns="http://www.w3.org/2000/svg"><path d="M16 37c8.8 0 16-7.1613 16-15.914-8.8 0-16 7.0619-16 15.914zM4.6 16.2124c0 2.4865 2 4.3763 4.4 4.3763.9 0 1.8-.2984 2.5-.7957v.2984c0 2.4866 2 4.3763 4.4 4.3763 2.5 0 4.4-1.9892 4.4-4.3763v-.2984c.7.4973 1.6.7957 2.5.7957 2.5 0 4.4-1.9892 4.4-4.3763 0-1.7904-1-3.2823-2.5-3.9785 1.5-.6963 2.5-2.1882 2.5-3.97852 0-2.48656-2-4.37635-4.4-4.37635-.9 0-1.8.29839-2.5.7957v-.29839C20.3 1.88978 18.3 0 15.9 0c-2.5 0-4.4 1.98925-4.4 4.37634v.29839c-.7-.49731-1.6-.7957-2.5-.7957-2.5 0-4.4 1.98925-4.4 4.37635 0 1.79032 1 3.28222 2.5 3.97852-1.4.6962-2.5 2.1881-2.5 3.9785zM16 7.75806c2.5 0 4.4 1.98925 4.4 4.37634 0 2.4866-2 4.3764-4.4 4.3764-2.5 0-4.4-1.9893-4.4-4.3764 0-2.38709 1.9-4.37634 4.4-4.37634zM0 21.086C0 29.8387 7.2 37 16 37c0-8.8521-7.2-15.914-16-15.914z" fill="#63D1BB"/></svg>