<svg width="55" height="23" fill="none" xmlns="http://www.w3.org/2000/svg"><path d="M40.9467 5.75002c-3.6397-.99138-7.886-1.68536-12.5367-1.68536-2.932 0-5.5607.19828-7.785.59483L13.75 0H.10114L5.9651 6.14656h8.4926C9.80697 7.73277 7.58272 9.61639 7.58272 9.61639v3.76721s2.32539 1.8836 6.97608 3.4698H5.86396L0 23h13.6489l6.875-4.6595c2.3253.3966 4.8529.5949 7.7849.5949 4.5496 0 8.796-.694 12.5368-1.6854-1.2132-1.7845-1.921-3.6681-1.921-5.8491.1011-1.9828.9099-3.8664 2.0221-5.65088zM44.4853 6.74121c-1.3144 1.58621-2.0221 3.1724-2.0221 4.75859 0 1.5862.7077 3.1724 2.0221 4.7587C50.9559 14.0774 55 11.4998 55 11.4998s-4.0441-2.57756-10.5147-4.75859z" fill="#63D1BB"/></svg>