<svg width="35" height="34" fill="none" xmlns="http://www.w3.org/2000/svg"><path d="M.30556 13.9528c-.40741 2.0775-.40741 4.1551 0 6.2326l4.17596-3.1658-4.17596-3.0668zM24.852 1.586C19.9631-.5905 14.2594-.5905 9.26857 1.98172l7.63893 5.54015L24.852 1.586zM34.528 13.062l-4.8889 3.6605 4.9908 3.6604c.5093-2.3743.5093-4.9465-.1019-7.3209zM9.37046 32.057c4.88894 2.4733 10.89824 2.6711 15.99084.0989l-8.25-6.0348-7.74084 5.9359zM8.04639 14.2488L1.73152 9.698c-.30556.6925-.61112 1.385-.81482 2.0776l5.39819 3.9572 1.7315-1.484zM18.9446 24.8349l8.4537 6.1337c.3056-.1979.6112-.3957.8149-.5936.3055-.1978.6111-.4946.9166-.7914l-8.4537-6.1338-1.7315 1.3851zM11.6112 11.5781L4.07412 6.13684c-.50926.49466-.91667 1.08825-1.32409 1.68183l7.02784 5.14443 1.83333-1.385zM22.5094 22.1635l8.2501 6.0348c.5093-.4947.9167-1.0883 1.3241-1.6818l-7.8427-5.7381-1.7315 1.3851zM15.176 8.90696L7.33339 3.16895c-.2037.09893-.40741.29679-.61111.39572-.40741.29679-.81482.59359-1.12038.98931l7.8427 5.63912 1.7314-1.28614zM26.0743 19.3936l7.1297 5.1444c.3055-.6925.6111-1.2861.9166-1.9786l-6.213-4.5509-1.8333 1.3851zM26.8891 2.67419L.9167 22.3615c.2037.6925.50926 1.3851.81482 2.0776L28.7225 3.9603c-.5093-.49466-1.1204-.89038-1.8334-1.28611zM31.2688 6.53234c-.3056-.39573-.6112-.79145-.9167-1.08825L2.85186 26.2197c.20371.4946.50927.8903.81483 1.1871.10185.1979.30555.3958.40741.4947L31.778 7.12592c-.2037-.19786-.3055-.39572-.5092-.59358zM32.8984 8.90674L5.70373 29.4844c.50926.4947 1.12038.9894 1.73149 1.3851L33.9169 10.8854c-.3055-.6926-.6111-1.38507-1.0185-1.97866z" fill="#63D1BB"/></svg>