<svg width="47" height="27" fill="none" xmlns="http://www.w3.org/2000/svg"><path d="M43.0665 0H3.93347C1.71459 0 0 1.68132 0 3.85714V23.1429C0 25.3187 1.71459 27 3.93347 27H43.0665C45.2854 27 47 25.3187 47 23.1429V3.85714C47 1.78022 45.1845 0 43.0665 0zM3.02575 24.7253V2.76923H43.5708V24.7253H3.02575z" fill="#63D1BB"/><path d="M6.95925 20.8683H39.6374V6.62659H6.95925V20.8683zM23.5 8.50571c2.9249 0 5.3455 2.37359 5.3455 5.24179 0 2.8681-2.4206 5.2417-5.3455 5.2417-2.9249 0-5.3455-2.3736-5.3455-5.2417 0-2.9671 2.4206-5.24179 5.3455-5.24179z" fill="#63D1BB"/></svg>