<svg width="33" height="32" fill="none" xmlns="http://www.w3.org/2000/svg"><path d="M3.02752 32H15.6422V18.2716H3.02752V32zM31.3853 8.69136h-7.367c.5046-.2963 1.0092-.49383 1.4129-.79013 1.6147-1.08642 2.422-2.5679 2.422-3.95061 0-1.18519-.6055-2.17285-1.4128-2.86421C25.633.39505 24.5229 0 23.4128 0c-1.211 0-2.422.39505-3.3302 1.08641-1.5138.98765-2.6239 2.46914-3.4312 4.04939 0 .09876-.1009.19753-.1009.19753-.3028-.5926-.6055-1.18519-1.0092-1.77778-.7064-.98766-1.5138-1.87655-2.523-2.46914C12.0092.49381 10.8991 0 9.68807 0c-1.21101 0-2.3211.49383-3.22936 1.28395-.80734.79013-1.41284 1.87654-1.41284 3.06172 0 .69136.20183 1.48148.6055 2.17284.6055.88889 1.41285 1.58026 2.62386 2.17285H1.61467C.70641 8.69136 0 9.38271 0 10.2716v5.8272h15.5413V8.69136h1.9174v7.40744H33v-5.8272c0-.88889-.7064-1.58024-1.6147-1.58024zM8.88073 6.41975c-.60551-.39506-1.00918-.79013-1.21101-1.08642-.20184-.39507-.30276-.69136-.30276-.98766 0-.49383.20185-.98765.70644-1.48148.40367-.39506 1.00916-.69135 1.61467-.69135.70643 0 1.41283.19752 2.01833.69135 1.0092.69136 2.0184 1.77777 2.6239 3.16049.3027.69136.6055 1.38272.8073 2.07408-3.1284-.2963-5.14678-.98765-6.25687-1.67901zM19.4771 4.8395c.6055-.79012 1.211-1.48148 1.9174-1.87654.7064-.49382 1.4128-.69135 2.0183-.69135.6055 0 1.1101.19753 1.5138.49382.4037.2963.6055.69136.6055 1.18519 0 .49382-.3027 1.28394-1.5138 2.07406-1.11.79012-3.1284 1.67902-6.1559 2.27161.3027-1.18519.9082-2.46914 1.6147-3.45679zM17.4587 32h12.6147V18.2716H17.4587V32z" fill="#63D1BB"/></svg>