<svg width="86" height="35" fill="none" xmlns="http://www.w3.org/2000/svg"><path d="M4.54732 26.3185c0-3.5-.29999-6.9-.39999-10.4v-1c0 .1.09999.2.09999.4.5 1.4 1.1 2.7 1.8 3.9.7 1.2 1.1 2.6 1.5 3.9-.2.2-.29999.4-.19999.6 0 .2001.09999.2.19999.3.5.5 1.50001.2 2.10001 0 .2-.1.49997-.2.69997-.4.3-.2.7-.6.6-1 0-.1 0-.2-.1-.2.4-1.1.6-2.2.8-3.3.2-1.2.7-2.3 1.1-3.5 0 .5.1 1 .1 1.6.2 2.1 0 4.3 0 6.4 0 .7 0 1.4.2 2.1.1.3.3 1.5.2 1.6-.5.5-.4 1.1.3 1.2.8.2 1.8-.1 2.3-.6 1-.9.5-2.4.3-3.6-.4-2 .1-4.2 0-6.2-.1-2.3-.4-4.5-.4-6.8 0-1.79995.3-3.69995-.3-5.49995 0-.2.1-.4.1-.6.2-.9-2.8-.4-3.2.4-.3.2-.4.5-.3.8 0 .1.1.1.1.2-.6 2.7-1.3 5.29995-2.19997 7.89995-.3 1-.7 2-1.1 3-.5-.9-1-1.9-1.4-2.8-1.2-2.9-2.2-5.79995-3.6-8.59995.2-1.3-2.70001-1.2-3.3 0-.7 1.4-.6 2.9-.4 4.39995.3 1.7.3 3.4.3 5.1 0 3.3.3 6.7.4 10-.3.3-.4.7-.1 1.2.1.2.29999.3.49999.5 1.2.7 3.3.2 3.3-1zM22.7473 7.91856c-.1-.6-3.4.1-3.3.9.3 1.80004.2 3.60004.1 5.40004 0 1.7.4 3.3.6 5 .2 1.7-.1 3.5.1 5.2.1.8.6 2.3.1 3-.4.4 1.2.3 1.3.3.6-.1 1.5-.3 1.9-.9.6-.7.2-2 0-2.8-.3-1.7-.1-3.5-.2-5.3-.1-1.7-.6-3.3-.7-4.9.3-2 .4-3.90004.1-5.90004zM25.9473 14.6186c.9 2.5 4.6 1.3 6.6 1.5 3.2.2 2.3 4.6 2.3 6.6 0 1.1 1 2.9.2 3.8-.5.6-1.7.6-2.4.6-.7.1-1.9.3-2.3-.4-.8-1.2.1-3.2-.1-4.6-.1-.8-3.4-.1-3.3.9.3 2.2-1.2 5.2 2 5.6 2.1.2 4.4-.1 6.3-.8 1-.3 1.9-.8 2.7-1.5.9-.8.6-2 .4-3-.6-2.5.6-5.3-1-7.5-1.7-2.3-5-.7-7.2-1.3-1.2-.2-1.2-1.8-1.2-2.8 0-1.2-.1-2.30003-.2-3.50003-.1-.9 0-1.8.6-2.4.1-.1.7-.3.7-.3.3-.1.6-.1.9-.1 1.3-.1 3.9.2 3.4 2.1-.2.9 3 .4 3.3-.5 1-3.9-6.1-3.1-8.2-2.6-1.9.5-3.9 1.6-4 3.7-.1 1 .2 2.00003.3 3.00003 0 1.2-.3 2.4.2 3.5zM40.3473 16.5186c-.1 1.8-.2 3.6-.2 5.4 0 .9.1 1.8.3 2.8.1.8.4 2 .2 2.8-.2.6 3 .2 3.3-.6.5-1.5-.2-3.4-.3-4.9-.1-1.5 0-2.9.1-4.4 1.7-.1 3.4-.2 5.1 0 .1 1.2.2 2.3.3 3.5.1 1 .2 1.9.2 2.9 0 .9.1 2.1-.2 2.9-.7 1.7 2.7 1.6 3.1.3.6-1.6.4-3.5.3-5.2-.3-2.2-.6-4.2-.6-6.3-.1-3.2-.6-6.30004-.6-9.50004 0-1.7-3.3-1.1-3.3.3 0 3 .4 6.00004.6 9.10004v.2c-1.6 0-3.3.1-4.9.2.2-3.9-.5-7.80004-.4-11.70004 0-.5-3.3-.1-3.3.9-.2 3.8.4 7.50004.3 11.30004zM54.4473 21.8186c-.3.2999-.2.3999 0 .5 0 1.5 0 2.9-.2 4.4-.4.6.4 1 .9 1h.1c.6 0 2.2-.3001 2.3-1.1001.2-1.7999.2-3.5.2-5.2999 1.3-1.4 2.4-3.1 3.4-4.7.6 1.2 1.2 2.5 1.7 3.9.7 2.3 1.9 4.4 2.6 6.8.5 1.5 3.8.5999 3.3-.9001-.7-2.3-1.9-4.5-2.6-6.8-.8-2.3-2-4.3999-3-6.5999.8-1.6 1.7-3.30005 2.5-5.00005.7-1.5 1.2-3.2 2.6-4.3.5-.4.5-.8-.2-.8-.7-.1-1.7.2-2.3.6-1.3 1-2 2.2-2.7 3.6-.8 1.7-1.6 3.40005-2.5 5.10005-.1.1-.1.2-.2.4-.4.3-.7.6-.5 1.1-.7 1.3-1.3 2.6-2.1 3.9-.3-4.7-.8-9.30005-1-14.00005 0-1.1-3.3-.4-3.3.9.2 5.70005 1 11.49995 1 17.30005zM85.9473 15.6186c-.2-.7-1.2-.7-1.9-.6v-.8c-.1-2.2-.1-4.50005-.3-6.80005-.2-2.1-1.3-2.8-3.3-2.7-2 .1-4.4.4-6.3 1.2-2.2.9-3.4 2.5-3.8 4.80005-.5 2.5.2 5.2.3 7.8.1 3 .1 5.9.1 8.9 0 .5 3.3 0 3.3-.9v-7c0-.7 0-1.4-.1-2.1 1.2-.5 3.1 0 4.3.1.9.1 1.8-.1 2.7-.2 0 1.9.1 3.9.2 5.9 0 1 .4 3-.3 3.8-.4.4 1.2.3 1.3.3.7-.1 1.5-.3 1.9-.9.8-.9.4-3.2.3-4.3-.1-1.6-.1-3.2-.1-4.8.8-.4 1.9-1 1.7-1.7zm-6.6-.2c-1.9 0-3.8-.3-5.7 0-.1-1.1-.2-2.1-.3-3.2-.1-2 .1-4.70005 1.9-5.90005.5-.3 1.4-.3 2-.4.8-.1 1.6-.3 2.4.2 1 .7.8 3.1.8 4.10005 0 1.7.2 3.4.3 5.1-.5.1-1 .1-1.4.1zM19.1473 4.11856c0 .2 0 .4.1.5v.4c.1.2.2.3.4.4.3.2.7.2 1.1.2.4 0 .9-.2 1.2-.4l.2-.2c.4-.3.8-.7.6-1.1-.4-.9-.4-1.9-.3-2.9 0-.8-.8-1.1-1.5-1-.6.1-1.8.5-1.8 1.3s-.1 1.7.1 2.5c-.1.1-.1.2-.1.3zM80.6473 33.3186c-1.6-.6-3.3-.6-4.9-.8-1.6-.2-3.2-.4001-4.9-.6001-1.6.1-3.3.0001-5 .1001l-4.9.3c-6.5.3-13 .2999-19.5.0999-6.5-.1-13-.5-19.6-.5-3.3 0-6.6.1001-9.9.3001-1.6.3-3.19997.4999-4.89997.8999-1.6.4-3.1.9-4.8 1 1.6.4 3.3.3 5 .3 1.6 0 3.19997.1 4.89997.2 3.2-.2 6.5-.1999 9.7-.2999 6.5 0 13 .3 19.6.5 6.5.1 13.1.2 19.7-.1l4.9-.3001c1.6-.1 3.2-.0999 4.8-.0999 1.6-.1 3.3-.3 4.9-.5 1.7-.2 3.2-.6 4.9-.5h.1v-.1-.5c0 .4 0 .5-.1.6z" fill="#000"/></svg>